<?xml version="1.0" encoding="UTF-8" standalone="no"?>
<!-- Created with Inkscape (http://www.inkscape.org/) -->

<svg
   xmlns:osb="http://www.openswatchbook.org/uri/2009/osb"
   xmlns:dc="http://purl.org/dc/elements/1.1/"
   xmlns:cc="http://creativecommons.org/ns#"
   xmlns:rdf="http://www.w3.org/1999/02/22-rdf-syntax-ns#"
   xmlns:svg="http://www.w3.org/2000/svg"
   xmlns="http://www.w3.org/2000/svg"
   xmlns:sodipodi="http://sodipodi.sourceforge.net/DTD/sodipodi-0.dtd"
   xmlns:inkscape="http://www.inkscape.org/namespaces/inkscape"
   width="240.31612mm"
   height="59.448536mm"
   viewBox="0 0 240.31612 59.448536"
   version="1.1"
   id="svg8"
   inkscape:version="0.92.4 (5da689c313, 2019-01-14)"
   sodipodi:docname="Logo_black.svg"
   inkscape:export-filename="C:\Users\Tobias Fechner\Documents\2 - Industry\EIP\ALIAN\Logo\Vectors\Logo_black.png"
   inkscape:export-xdpi="501.29999"
   inkscape:export-ydpi="501.29999">
  <defs
     id="defs2">
    <linearGradient
       id="linearGradient6162"
       osb:paint="solid">
      <stop
         style="stop-color:#000000;stop-opacity:1;"
         offset="0"
         id="stop6160" />
    </linearGradient>
    <clipPath
       clipPathUnits="userSpaceOnUse"
       id="clipPath903">
      <path
         inkscape:connector-curvature="0"
         style="fill:#000006;fill-opacity:1;stroke:#000002;stroke-width:0.43942544;stroke-miterlimit:4;stroke-dasharray:none;stroke-opacity:1"
         d="m 28.138128,6.0177048 c -1.58188,0.1926799 -3.114299,0.8965546 -4.333534,2.1157895 L 17.906198,14.03189 h 10.23193 z m 1.787946,0 V 14.03189 H 40.158472 L 34.260076,8.1334943 C 33.040841,6.9142594 31.507951,6.2103847 29.926074,6.0177048 Z M 13.7892,18.148421 6.1659963,25.771625 c -2.8961614,2.896159 -2.8961614,7.559321 0,10.455482 l 8.5473427,8.547341 h 28.637524 l 8.547343,-8.547341 c 2.896161,-2.896161 2.896161,-7.559323 0,-10.455482 l -7.623204,-7.623204 z m 5.040669,30.74256 4.974725,4.974725 c 1.21377,1.213768 2.738141,1.916586 4.312489,2.112981 v -7.087706 z m 11.117718,0 v 7.087706 c 1.574347,-0.196395 3.098718,-0.899213 4.312489,-2.112981 l 4.974725,-4.974725 z"
         id="path905" />
    </clipPath>
    <clipPath
       clipPathUnits="userSpaceOnUse"
       id="clipPath1039">
      <path
         style="opacity:0.43000004;fill:#ffb5ff;fill-opacity:1;stroke:#000000;stroke-width:0.26458332px;stroke-linecap:butt;stroke-linejoin:miter;stroke-opacity:1"
         d="M 51.865051,1.3058634 -2.725415,3.0969686 2.4143229,54.339318 30.99449,61.19213 59.263566,41.022302 Z M 37.788392,21.461222 a 1.7941016,1.7941016 0 0 1 1.794206,1.794206 1.7941016,1.7941016 0 0 1 -1.794206,1.794205 1.7941016,1.7941016 0 0 1 -1.794205,-1.794205 1.7941016,1.7941016 0 0 1 1.794205,-1.794206 z m -9.967351,2.292367 a 1.7941016,1.7941016 0 0 1 1.794205,1.794205 1.7941016,1.7941016 0 0 1 -1.794205,1.794205 1.7941016,1.7941016 0 0 1 -1.793689,-1.794205 1.7941016,1.7941016 0 0 1 1.793689,-1.794205 z M 13.070003,24.45122 a 1.7941016,1.7941016 0 0 1 1.793689,1.794206 1.7941016,1.7941016 0 0 1 -1.793689,1.794205 1.7941016,1.7941016 0 0 1 -1.794206,-1.794205 1.7941016,1.7941016 0 0 1 1.794206,-1.794206 z m 32.592842,4.086574 a 1.7941018,1.7941018 0 0 1 1.793689,1.794203 1.7941018,1.7941018 0 0 1 -1.793689,1.794209 1.7941018,1.7941018 0 0 1 -1.794206,-1.794209 1.7941018,1.7941018 0 0 1 1.794206,-1.794203 z m -25.3168,0.398942 a 1.7941016,1.7941016 0 0 1 1.793689,1.794205 1.7941016,1.7941016 0 0 1 -1.793689,1.793688 1.7941016,1.7941016 0 0 1 -1.794206,-1.793688 1.7941016,1.7941016 0 0 1 1.794206,-1.794205 z m 15.548923,1.594733 a 1.7941017,1.7941017 0 0 1 1.793687,1.794206 1.7941017,1.7941017 0 0 1 -1.793687,1.79369 1.7941017,1.7941017 0 0 1 -1.794206,-1.79369 1.7941017,1.7941017 0 0 1 1.794206,-1.794206 z m -7.077088,5.781043 a 1.7941017,1.7941017 0 0 1 1.794205,1.794206 1.7941017,1.7941017 0 0 1 -1.794205,1.79369 1.7941017,1.7941017 0 0 1 -1.794206,-1.79369 1.7941017,1.7941017 0 0 1 1.794206,-1.794206 z m -10.764719,1.395264 a 1.7941017,1.7941017 0 0 1 1.794206,1.794206 1.7941017,1.7941017 0 0 1 -1.794206,1.794206 1.7941017,1.7941017 0 0 1 -1.793689,-1.794206 1.7941017,1.7941017 0 0 1 1.793689,-1.794206 z m 21.329965,0.19947 a 1.7941017,1.7941017 0 0 1 1.794206,1.794205 1.7941017,1.7941017 0 0 1 -1.794206,1.79369 1.7941017,1.7941017 0 0 1 -1.794206,-1.79369 1.7941017,1.7941017 0 0 1 1.794206,-1.794205 z"
         id="path1041"
         inkscape:connector-curvature="0" />
    </clipPath>
  </defs>
  <sodipodi:namedview
     id="base"
     pagecolor="#ffffff"
     bordercolor="#666666"
     borderopacity="1.0"
     inkscape:pageopacity="0"
     inkscape:pageshadow="2"
     inkscape:zoom="0.84937666"
     inkscape:cx="361.66199"
     inkscape:cy="20.582872"
     inkscape:document-units="mm"
     inkscape:current-layer="layer1"
     showgrid="false"
     showborder="true"
     showguides="false"
     inkscape:snap-intersection-paths="true"
     inkscape:object-paths="true"
     inkscape:snap-object-midpoints="true"
     inkscape:window-width="1920"
     inkscape:window-height="1051"
     inkscape:window-x="-9"
     inkscape:window-y="-9"
     inkscape:window-maximized="1"
     inkscape:snap-nodes="false"
     inkscape:snap-others="false"
     fit-margin-top="0"
     fit-margin-left="0"
     fit-margin-right="0"
     fit-margin-bottom="0">
    <inkscape:grid
       type="xygrid"
       id="grid6219"
       originx="-4.710489"
       originy="-143.93804" />
  </sodipodi:namedview>
  <metadata
     id="metadata5">
    <rdf:RDF>
      <cc:Work
         rdf:about="">
        <dc:format>image/svg+xml</dc:format>
        <dc:type
           rdf:resource="http://purl.org/dc/dcmitype/StillImage" />
        <dc:title></dc:title>
      </cc:Work>
    </rdf:RDF>
  </metadata>
  <g
     inkscape:label="Layer 1"
     inkscape:groupmode="layer"
     id="layer1"
     transform="translate(-4.7104889,-93.613426)">
    <g
       id="g839"
       transform="matrix(1.1781808,0,0,1.1781808,0.26170151,86.815796)">
      <path
         clip-path="url(#clipPath1039)"
         id="rect6238"
         d="m 28.138128,6.0176969 c -1.581879,0.19268 -3.114299,0.8965548 -4.333534,2.1157897 l -5.898396,5.8983954 h 10.23193 z m 1.787946,0 V 14.031882 H 40.158471 L 34.260076,8.1334866 C 33.040841,6.9142517 31.507952,6.2103769 29.926074,6.0176969 Z M 13.7892,18.148413 6.1659965,25.771617 c -2.8961614,2.89616 -2.8961614,7.559321 0,10.455481 l 8.5473425,8.547342 h 28.637524 l 8.547342,-8.547342 c 2.896162,-2.89616 2.896162,-7.559321 0,-10.455481 l -7.623204,-7.623204 z m 5.040669,30.742558 4.974725,4.974725 c 1.21377,1.213769 2.738142,1.916587 4.312489,2.112984 v -7.087709 z m 11.117718,0 v 7.087709 c 1.574347,-0.196397 3.098719,-0.899215 4.312489,-2.112984 l 4.974725,-4.974725 z"
         style="fill:#000006;fill-opacity:1;stroke:#000002;stroke-width:0.43942544;stroke-miterlimit:4;stroke-dasharray:none;stroke-opacity:1"
         inkscape:connector-curvature="0" />
      <text
         id="text6626"
         y="42.988926"
         x="63.647129"
         style="font-style:normal;font-weight:normal;font-size:31.92703629px;line-height:1.25;font-family:sans-serif;letter-spacing:0px;word-spacing:0px;fill:#000000;fill-opacity:1;stroke:none;stroke-width:0.23945278"
         xml:space="preserve"><tspan
           style="stroke-width:0.23945278"
           id="tspan6624"
           y="42.988926"
           x="63.647129"
           sodipodi:role="line"><tspan
             id="tspan6622"
             style="font-style:normal;font-variant:normal;font-weight:normal;font-stretch:normal;font-size:31.92703629px;line-height:1.25;font-family:Comfortaa;-inkscape-font-specification:Comfortaa;stroke-width:0.23945278"
             y="42.988926"
             x="63.647129">Farad a</tspan></tspan></text>
      <circle
         r="2.0938807"
         cy="20.446381"
         cx="198.47099"
         id="path6202-8"
         style="fill:none;fill-opacity:1;stroke:#000000;stroke-width:0.58137858;stroke-miterlimit:4;stroke-dasharray:none;stroke-opacity:1" />
      <circle
         r="2.0938807"
         cy="41.558628"
         cx="167.1226"
         id="path6202-8-4"
         style="opacity:1;fill:none;fill-opacity:1;stroke:#000000;stroke-width:0.58137858;stroke-miterlimit:4;stroke-dasharray:none;stroke-opacity:1" />
      <rect
         rx="1.2595726"
         ry="1.1559559"
         y="25.517887"
         x="197.22902"
         height="17.468933"
         width="2.5191453"
         id="rect858"
         style="opacity:1;fill:#000000;fill-opacity:1;stroke:none;stroke-width:0.93071043;stroke-miterlimit:4;stroke-dasharray:none;stroke-opacity:1" />
      <rect
         ry="0.019468933"
         rx="1.2595727"
         y="27.160566"
         x="207.74817"
         height="0.019468933"
         width="3.0079641e-14"
         id="rect860"
         style="opacity:1;fill:#000000;fill-opacity:1;stroke:none;stroke-width:0.71700001;stroke-miterlimit:4;stroke-dasharray:none;stroke-opacity:1" />
      <g
         id="g1130">
        <path
           inkscape:connector-curvature="0"
           d="m 18.060906,39.504892 2.685449,5.694866 m 17.042143,-21.944452 -4.858756,-6.76386 m -5.105554,9.058839 0.741697,-8.120252 m -15.468048,8.792251 7.516725,-8.752777 m 18.752189,22.243092 -3.654868,5.868177 m -6.897266,-7.476797 -0.790635,7.334908 m 11.359273,-5.737647 6.279357,-9.369199 m -7.874114,-7.076735 7.874114,7.076735 M 18.053377,39.501893 13.069762,26.245475 m 22.824962,6.080011 1.893774,-9.07018 m -9.967233,2.292463 8.073459,6.777717 m -7.076735,5.780996 -8.472148,-7.375754 m 8.472148,7.375754 7.076735,-5.780996 m 3.488531,7.375754 -3.488531,-7.375754 M 20.345841,30.730728 v 0 0 l -2.292464,8.771165 m 9.767888,-13.954124 c -7.475424,5.182959 -7.475424,5.182959 -7.475424,5.182959 m 0,0 c -7.276079,-4.485253 -7.276079,-4.485253 -7.276079,-4.485253 v 0"
           style="fill:none;stroke:#ffffff;stroke-width:0.71700001;stroke-linecap:butt;stroke-linejoin:miter;stroke-miterlimit:4;stroke-dasharray:none;stroke-opacity:1"
           id="path6647" />
      </g>
    </g>
  </g>
</svg>
