<?xml version="1.0" encoding="UTF-8" standalone="no"?>
<!-- Created with Inkscape (http://www.inkscape.org/) -->

<svg
   xmlns:osb="http://www.openswatchbook.org/uri/2009/osb"
   xmlns:dc="http://purl.org/dc/elements/1.1/"
   xmlns:cc="http://creativecommons.org/ns#"
   xmlns:rdf="http://www.w3.org/1999/02/22-rdf-syntax-ns#"
   xmlns:svg="http://www.w3.org/2000/svg"
   xmlns="http://www.w3.org/2000/svg"
   xmlns:sodipodi="http://sodipodi.sourceforge.net/DTD/sodipodi-0.dtd"
   xmlns:inkscape="http://www.inkscape.org/namespaces/inkscape"
   width="240.40477mm"
   height="63.423073mm"
   viewBox="0 0 240.40477 63.423073"
   version="1.1"
   id="svg8"
   inkscape:version="0.92.4 (5da689c313, 2019-01-14)"
   sodipodi:docname="Logo_black.svg"
   inkscape:export-filename="C:\Users\Tobias Fechner\Documents\2 - Industry\EIP\ALIAN\Logo\Vectors\Logo_black.png"
   inkscape:export-xdpi="501.29999"
   inkscape:export-ydpi="501.29999">
  <defs
     id="defs2">
    <linearGradient
       id="linearGradient6162"
       osb:paint="solid">
      <stop
         style="stop-color:#000000;stop-opacity:1;"
         offset="0"
         id="stop6160" />
    </linearGradient>
    <clipPath
       clipPathUnits="userSpaceOnUse"
       id="clipPath903">
      <path
         inkscape:connector-curvature="0"
         style="fill:#000006;fill-opacity:1;stroke:#000002;stroke-width:0.43942544;stroke-miterlimit:4;stroke-dasharray:none;stroke-opacity:1"
         d="m 28.138128,6.0177048 c -1.58188,0.1926799 -3.114299,0.8965546 -4.333534,2.1157895 L 17.906198,14.03189 h 10.23193 z m 1.787946,0 V 14.03189 H 40.158472 L 34.260076,8.1334943 C 33.040841,6.9142594 31.507951,6.2103847 29.926074,6.0177048 Z M 13.7892,18.148421 6.1659963,25.771625 c -2.8961614,2.896159 -2.8961614,7.559321 0,10.455482 l 8.5473427,8.547341 h 28.637524 l 8.547343,-8.547341 c 2.896161,-2.896161 2.896161,-7.559323 0,-10.455482 l -7.623204,-7.623204 z m 5.040669,30.74256 4.974725,4.974725 c 1.21377,1.213768 2.738141,1.916586 4.312489,2.112981 v -7.087706 z m 11.117718,0 v 7.087706 c 1.574347,-0.196395 3.098718,-0.899213 4.312489,-2.112981 l 4.974725,-4.974725 z"
         id="path905" />
    </clipPath>
    <clipPath
       clipPathUnits="userSpaceOnUse"
       id="clipPath1039">
      <path
         style="opacity:0.43000004;fill:#ffb5ff;fill-opacity:1;stroke:#000000;stroke-width:0.26458332px;stroke-linecap:butt;stroke-linejoin:miter;stroke-opacity:1"
         d="M 51.865051,1.3058634 -2.725415,3.0969686 2.4143229,54.339318 30.99449,61.19213 59.263566,41.022302 Z M 37.788392,21.461222 a 1.7941016,1.7941016 0 0 1 1.794206,1.794206 1.7941016,1.7941016 0 0 1 -1.794206,1.794205 1.7941016,1.7941016 0 0 1 -1.794205,-1.794205 1.7941016,1.7941016 0 0 1 1.794205,-1.794206 z m -9.967351,2.292367 a 1.7941016,1.7941016 0 0 1 1.794205,1.794205 1.7941016,1.7941016 0 0 1 -1.794205,1.794205 1.7941016,1.7941016 0 0 1 -1.793689,-1.794205 1.7941016,1.7941016 0 0 1 1.793689,-1.794205 z M 13.070003,24.45122 a 1.7941016,1.7941016 0 0 1 1.793689,1.794206 1.7941016,1.7941016 0 0 1 -1.793689,1.794205 1.7941016,1.7941016 0 0 1 -1.794206,-1.794205 1.7941016,1.7941016 0 0 1 1.794206,-1.794206 z m 32.592842,4.086574 a 1.7941018,1.7941018 0 0 1 1.793689,1.794203 1.7941018,1.7941018 0 0 1 -1.793689,1.794209 1.7941018,1.7941018 0 0 1 -1.794206,-1.794209 1.7941018,1.7941018 0 0 1 1.794206,-1.794203 z m -25.3168,0.398942 a 1.7941016,1.7941016 0 0 1 1.793689,1.794205 1.7941016,1.7941016 0 0 1 -1.793689,1.793688 1.7941016,1.7941016 0 0 1 -1.794206,-1.793688 1.7941016,1.7941016 0 0 1 1.794206,-1.794205 z m 15.548923,1.594733 a 1.7941017,1.7941017 0 0 1 1.793687,1.794206 1.7941017,1.7941017 0 0 1 -1.793687,1.79369 1.7941017,1.7941017 0 0 1 -1.794206,-1.79369 1.7941017,1.7941017 0 0 1 1.794206,-1.794206 z m -7.077088,5.781043 a 1.7941017,1.7941017 0 0 1 1.794205,1.794206 1.7941017,1.7941017 0 0 1 -1.794205,1.79369 1.7941017,1.7941017 0 0 1 -1.794206,-1.79369 1.7941017,1.7941017 0 0 1 1.794206,-1.794206 z m -10.764719,1.395264 a 1.7941017,1.7941017 0 0 1 1.794206,1.794206 1.7941017,1.7941017 0 0 1 -1.794206,1.794206 1.7941017,1.7941017 0 0 1 -1.793689,-1.794206 1.7941017,1.7941017 0 0 1 1.793689,-1.794206 z m 21.329965,0.19947 a 1.7941017,1.7941017 0 0 1 1.794206,1.794205 1.7941017,1.7941017 0 0 1 -1.794206,1.79369 1.7941017,1.7941017 0 0 1 -1.794206,-1.79369 1.7941017,1.7941017 0 0 1 1.794206,-1.794205 z"
         id="path1041"
         inkscape:connector-curvature="0" />
    </clipPath>
    <clipPath
       clipPathUnits="userSpaceOnUse"
       id="clipPath7009">
      <path
         inkscape:connector-curvature="0"
         style="fill:#ffffff;fill-opacity:1;stroke:#ffffff;stroke-width:0.43942544;stroke-miterlimit:4;stroke-dasharray:none;stroke-opacity:1"
         d="m 28.151317,5.4891464 c -1.58188,0.1926801 -3.114299,0.8965549 -4.333534,2.1157898 l -5.898396,5.8983948 h 10.23193 z m 1.787946,0 V 13.503331 H 40.171661 L 34.273265,7.6049362 C 33.054031,6.3857013 31.521141,5.6818265 29.939263,5.4891464 Z M 13.802389,17.619862 6.1791855,25.243066 c -2.8961614,2.89616 -2.8961614,7.559322 0,10.455483 l 8.5473425,8.547341 h 28.637524 l 8.547344,-8.547341 c 2.89616,-2.896161 2.89616,-7.559323 0,-10.455483 l -7.623205,-7.623204 z m 5.040669,30.742561 4.974725,4.974725 c 1.21377,1.213768 2.738142,1.916586 4.312489,2.112981 v -7.087706 z m 11.117718,0 v 7.087706 c 1.574348,-0.196395 3.098718,-0.899213 4.312489,-2.112981 l 4.974725,-4.974725 z"
         id="path7011" />
    </clipPath>
  </defs>
  <sodipodi:namedview
     id="base"
     pagecolor="#ffffff"
     bordercolor="#666666"
     borderopacity="1.0"
     inkscape:pageopacity="0"
     inkscape:pageshadow="2"
     inkscape:zoom="1.2012"
     inkscape:cx="356.2163"
     inkscape:cy="10.4749"
     inkscape:document-units="mm"
     inkscape:current-layer="layer1"
     showgrid="false"
     showborder="true"
     showguides="false"
     inkscape:snap-intersection-paths="true"
     inkscape:object-paths="true"
     inkscape:snap-object-midpoints="true"
     inkscape:window-width="1920"
     inkscape:window-height="1051"
     inkscape:window-x="-9"
     inkscape:window-y="-9"
     inkscape:window-maximized="1"
     inkscape:snap-nodes="false"
     inkscape:snap-others="false"
     fit-margin-top="0"
     fit-margin-left="0"
     fit-margin-right="0"
     fit-margin-bottom="0">
    <inkscape:grid
       type="xygrid"
       id="grid6219"
       originx="-4.6218366"
       originy="-141.38379" />
  </sodipodi:namedview>
  <metadata
     id="metadata5">
    <rdf:RDF>
      <cc:Work
         rdf:about="">
        <dc:format>image/svg+xml</dc:format>
        <dc:type
           rdf:resource="http://purl.org/dc/dcmitype/StillImage" />
        <dc:title></dc:title>
      </cc:Work>
    </rdf:RDF>
  </metadata>
  <g
     inkscape:label="Layer 1"
     inkscape:groupmode="layer"
     id="layer1"
     transform="translate(-4.6218364,-92.193137)">
    <g
       id="g885">
      <g
         id="g875"
         transform="matrix(0.20731224,0,0,0.20731224,6.9436147,96.046579)">
        <path
           style="opacity:1;fill:#000000;fill-opacity:1;stroke:#000000;stroke-width:0.38178992;stroke-miterlimit:4;stroke-dasharray:none;stroke-opacity:1"
           d="M 144.91215,794.12715 C 76.766988,725.84087 39.717455,687.9866 35.581386,682.42164 9.9975404,647.99936 -2.1741483,607.06875 1.1166404,566.52456 2.2843988,552.13718 2.5731428,550.33657 5.8022855,537.30488 11.801361,513.0947 23.933526,489.28096 40.029974,470.12072 c 3.50058,-4.16688 47.196977,-48.37698 97.103106,-98.24467 l 90.73841,-90.66854 66.21256,0.25988 66.21256,0.25988 -62.98439,77.78175 c -34.6414,42.77996 -63.25099,78.37895 -63.57687,79.10885 -0.33063,0.74059 0.47071,2.07113 1.81316,3.01056 1.32309,0.9259 4.09313,3.20717 6.15563,5.06949 2.0625,1.86233 4.10806,3.16073 4.54569,2.88535 0.43763,-0.27539 31.25179,-38.25339 68.47591,-84.39556 l 67.68022,-83.89487 85.46215,-0.0353 85.46213,-0.0353 -0.37485,4.79822 c -0.28776,3.6832 -4.08708,76.01427 -6.63434,126.30366 l -0.27038,5.33789 8.25497,0.45545 8.25496,0.45546 0.58101,-6.29842 c 0.69653,-7.55074 6.67812,-121.84814 6.66019,-127.26419 l -0.0125,-3.78807 h 54.42475 54.42474 l 35.16733,48.99593 35.16733,48.99594 2.58435,-2.40707 c 1.42139,-1.32388 4.54968,-3.62512 6.95176,-5.11385 3.11188,-1.92865 4.08503,-3.05266 3.38512,-3.90992 -0.54026,-0.66173 -14.69072,-20.29503 -31.44546,-43.62955 l -30.46317,-42.42641 116.47012,-0.25681 116.47013,-0.2568 88.2408,88.14008 c 48.5326,48.47704 91.5499,91.88091 95.5939,96.45305 20.0466,22.6642 33.8281,50.34841 40.114,80.58045 1.9971,9.60506 2.3073,14.05643 2.2874,32.82996 -0.02,18.73361 -0.3382,23.17591 -2.316,32.32488 -6.2146,28.74651 -18.3275,54.36786 -35.5788,75.25636 -3.212,3.88909 -51.6766,52.87186 -107.6993,108.85061 l -101.85942,101.77953 -73.44031,-0.2592 -73.44032,-0.25921 18.25058,-29.29442 c 10.03783,-16.11193 18.46234,-29.82157 18.72113,-30.46586 0.2588,-0.64428 -0.45945,-1.4666 -1.5961,-1.82735 -1.13665,-0.36076 -4.35022,-2.22675 -7.14127,-4.14666 l -5.07463,-3.49073 -4.35794,6.83332 c -2.39686,3.75832 -12.21248,19.44759 -21.81249,34.86505 l -17.45456,28.03173 h -88.12203 -88.12203 l 0.35678,-2.77792 c 1.10188,-8.57915 9.39484,-87.67613 9.39484,-89.60653 0,-2.15668 -0.50123,-2.33692 -7.82869,-2.8151 -4.30577,-0.281 -8.06841,-0.13676 -8.36141,0.32052 -0.293,0.45727 -2.78093,21.99477 -5.52874,47.86108 l -4.996,47.02966 -82.26392,-0.25839 -82.26392,-0.2584 -16.26234,-34.52282 c -8.94428,-18.98755 -16.53353,-34.79402 -16.86499,-35.12548 -0.33145,-0.33146 -3.0597,0.68984 -6.06276,2.26954 -3.00307,1.5797 -6.47234,3.13689 -7.7095,3.46041 l -2.24936,0.58822 2.40911,5.40111 c 1.32501,2.97059 7.66205,16.45354 14.08229,29.9621 6.42025,13.50856 11.95248,25.44099 12.29383,26.51651 0.609,1.91876 -0.49581,1.95549 -58.82831,1.95549 h -59.44896 z m 689.81995,31.61077 c 7.04667,-3.37818 14.0137,-10.11805 17.4312,-16.86284 2.72509,-5.37827 2.99405,-6.81652 2.99405,-16.01062 0,-8.24737 -0.40407,-10.97616 -2.2014,-14.86665 -3.08652,-6.68103 -10.67037,-14.40796 -17.37077,-17.69847 -5.05416,-2.48206 -6.79728,-2.79022 -15.78317,-2.79022 -8.98589,0 -10.72901,0.30816 -15.78317,2.79022 -6.7004,3.29051 -14.28425,11.01744 -17.37077,17.69847 -3.14955,6.81748 -3.1725,22.86799 -0.0423,29.63751 4.0396,8.73645 12.15137,16.03515 21.65946,19.48843 6.54456,2.37695 20.09837,1.66727 26.46694,-1.38583 z m -502.12587,-2.18827 c 21.04356,-4.46033 33.67781,-25.83825 27.25459,-46.11642 -6.72986,-21.24622 -30.31058,-31.29927 -50.31561,-21.45082 -24.68642,12.15307 -27.01794,46.96302 -4.15889,62.09279 5.24105,3.46891 13.85575,6.41385 19.13868,6.54259 1.50052,0.0366 5.13706,-0.4441 8.08123,-1.06814 z m 255.71196,-34.24804 c 16.98531,-6.35501 26.63495,-26.60978 21.05428,-44.19326 -6.61406,-20.83943 -29.40994,-30.96189 -49.46151,-21.96329 -6.81894,3.06016 -13.85042,9.72552 -17.18518,16.29037 -8.30692,16.35312 -2.76279,36.79856 12.66269,46.69706 9.96845,6.39674 21.37034,7.49405 32.92972,3.16912 z M 899.80123,688.81875 c 24.94111,-37.22412 45.68351,-68.22908 46.09423,-68.89989 0.47629,-0.77793 -0.45426,-1.83417 -2.56927,-2.91633 -1.82382,-0.93316 -4.96795,-2.99453 -6.98696,-4.58081 -2.82082,-2.21624 -3.90527,-2.59358 -4.68285,-1.62937 -0.90787,1.1258 -90.70685,134.96056 -92.44711,137.7815 -0.45142,0.73175 1.26877,2.28835 4.61721,4.17809 2.93517,1.65651 5.96446,3.76827 6.73177,4.69282 1.14057,1.37431 1.62318,1.44137 2.6453,0.3676 0.68761,-0.72237 21.65657,-31.76949 46.59768,-68.99361 z m -99.36442,61.63469 c 3.7373,-1.65829 6.66866,-3.54453 6.51415,-4.19164 -0.15451,-0.64711 -9.30236,-20.24807 -20.32856,-43.5577 l -20.04763,-42.38114 -6.72141,3.38546 c -3.69678,1.862 -7.15833,3.53258 -7.69233,3.71239 -0.534,0.17982 5.79373,14.61386 14.06163,32.07564 8.2679,17.46179 17.45582,36.9003 20.4176,43.19668 2.96176,6.2964 5.74873,11.29665 6.19325,11.11168 0.44452,-0.18496 3.866,-1.69308 7.6033,-3.35137 z m -485.06549,-8.46633 c 1.40402,-0.54307 -4.61403,-17.30314 -39.58464,-110.24198 -27.69521,-73.60355 -41.67607,-109.52804 -42.56691,-109.37773 -0.7296,0.12311 -4.3884,1.25953 -8.13067,2.52538 -5.10571,1.72706 -6.66262,2.67978 -6.23722,3.81679 2.82095,7.53984 81.24015,216.07141 81.72805,217.33045 0.57889,1.49384 1.27935,1.4049 6.89003,-0.8748 3.4351,-1.39573 6.9907,-2.82588 7.90136,-3.17811 z m 45.25197,-54.53551 c 7.88388,-30.19789 14.19193,-54.99128 14.01789,-55.09645 -1.13138,-0.68364 -15.51493,-4.43607 -15.82303,-4.12797 -0.52083,0.52082 -29.39144,110.77945 -29.42134,112.36189 -0.0132,0.69941 1.21536,1.28242 2.75406,1.3069 1.52785,0.0243 5.05076,0.81981 7.82868,1.76777 4.44216,1.51586 5.1266,1.54097 5.68009,0.20832 0.34614,-0.83337 7.07977,-26.22258 14.96365,-56.42046 z m 291.4934,16.43029 c 19.44543,-15.87771 40.04108,-32.72382 45.7681,-37.43581 l 10.41276,-8.56725 -3.34169,-3.78865 c -1.83793,-2.08376 -4.25084,-5.05194 -5.362,-6.59595 l -2.02031,-2.80729 -46.12599,37.67846 -46.12599,37.67846 4.96228,5.42952 c 2.72925,2.98623 4.96227,5.84745 4.96227,6.35826 0,0.5108 0.34093,0.9265 0.75761,0.92377 0.41669,-0.003 16.66752,-12.99582 36.11296,-28.87352 z m -116.67262,26.9396 c 0,-0.51082 2.26341,-3.40529 5.0298,-6.43216 l 5.02981,-5.50341 -60.75305,-52.8986 c -33.41418,-29.09423 -61.87599,-53.7819 -63.24847,-54.86149 -2.46322,-1.93758 -2.51358,-1.93778 -3.90317,-0.0157 -0.77428,1.07095 -3.28206,3.89062 -5.57287,6.26593 l -4.16512,4.31875 3.94,3.40361 c 2.16699,1.87198 30.53226,26.61005 63.03392,54.97348 32.50165,28.36343 59.43485,51.59428 59.85153,51.62411 0.41669,0.0298 0.75762,-0.36371 0.75762,-0.87451 z m 218.33417,-76.05142 c 7.61968,-3.4884 13.00692,-8.57838 17.1333,-16.18788 3.25367,-6.00016 3.43361,-6.86135 3.43361,-16.43351 0,-12.07029 -1.76964,-16.8167 -9.25247,-24.81645 -14.0939,-15.06752 -37.09865,-15.41273 -51.81259,-0.77749 -12.24075,12.17528 -13.66863,33.02226 -3.21309,46.91086 4.31446,5.73111 11.50501,10.88031 18.18506,13.02245 7.05373,2.26197 18.51819,1.49039 25.52618,-1.71798 z M 394.81482,617.25404 c 26.51569,-13.66317 26.12507,-51.89865 -0.66443,-65.03991 -4.99032,-2.44793 -6.85396,-2.78848 -15.27997,-2.7922 -8.29448,-0.004 -10.37714,0.36172 -15.35078,2.69306 -7.34056,3.44082 -14.37152,10.47178 -17.81234,17.81234 -2.29836,4.90328 -2.69729,7.10207 -2.69729,14.86695 0,8.25694 0.31117,9.74469 3.31387,15.84406 3.96323,8.05044 11.15478,14.9417 18.70947,17.92825 7.91551,3.12917 22.40045,2.49078 29.78147,-1.31255 z m 586.31399,-9.05764 c 6.62165,-3.23968 14.21218,-10.98781 17.28911,-17.64809 1.79728,-3.89048 2.20138,-6.61928 2.20138,-14.86665 0,-8.24737 -0.4041,-10.97616 -2.20138,-14.86664 -3.08652,-6.68104 -10.67037,-14.40797 -17.37078,-17.69848 -5.05415,-2.48206 -6.79727,-2.79022 -15.78316,-2.79022 -9.11614,0 -10.65879,0.28237 -15.81414,2.89466 -7.06456,3.57969 -12.96827,9.52111 -16.69667,16.80332 -2.55925,4.99863 -2.84453,6.56894 -2.84453,15.65736 0,11.61312 1.92606,16.90047 8.921,24.48952 7.91074,8.58266 15.27986,11.48977 28.03123,11.05832 6.98881,-0.23647 9.75278,-0.82404 14.26794,-3.0331 z M 699.08878,597.48135 c 0,-0.51081 2.24674,-3.38704 4.99276,-6.39163 l 4.99277,-5.46287 -58.19987,-48.84681 -58.19987,-48.8468 -1.59366,2.45795 c -0.87652,1.35188 -3.30377,4.33299 -5.39387,6.62469 l -3.8002,4.16672 57.84336,48.58859 c 31.81384,26.72372 58.18428,48.5999 58.60097,48.61374 0.41668,0.0138 0.75761,-0.39277 0.75761,-0.90358 z m 57.95561,-21.04207 c 0.28218,-0.97227 5.7912,-27.22361 12.24225,-58.33631 6.45106,-31.1127 11.91688,-57.13212 12.14627,-57.82094 0.2409,-0.7234 -0.74123,-1.47189 -2.3252,-1.77206 -1.50824,-0.28581 -5.35603,-1.12441 -8.55064,-1.86356 -3.1946,-0.73914 -5.80837,-1.00952 -5.80837,-0.60084 0,0.40869 -5.45483,26.85806 -12.12183,58.77638 -6.66701,31.91834 -12.12184,58.55563 -12.12184,59.19398 0,0.63837 1.25007,1.19724 2.77792,1.24195 1.52786,0.0448 4.82348,0.6672 7.32361,1.3833 2.50013,0.71609 4.85599,1.36137 5.23523,1.43393 0.37925,0.0725 0.92042,-0.66356 1.2026,-1.63583 z M 336.97192,563.35446 c 1.09861,-2.05749 3.08375,-5.03961 4.4114,-6.62693 1.35765,-1.62319 2.02068,-3.24145 1.51523,-3.69826 -0.49428,-0.44672 -20.6601,-12.97459 -44.81292,-27.8397 -39.03652,-24.02542 -44.02948,-26.82935 -44.95179,-25.24379 -0.57066,0.98102 -2.51491,4.03604 -4.32056,6.78894 -1.80564,2.7529 -3.27378,5.30053 -3.26252,5.66138 0.0252,0.80531 86.94665,54.52318 88.3907,54.62583 0.56813,0.0404 1.93184,-1.60997 3.03046,-3.66747 z m 131.55215,-30.24771 c 25.41653,-17.58257 47.00719,-32.70943 47.97926,-33.61526 1.67239,-1.55842 1.5638,-1.92327 -2.0203,-6.78776 -2.08324,-2.82744 -4.24227,-5.87046 -4.79785,-6.76225 -0.85441,-1.37143 -8.37162,3.49026 -48.75524,31.53202 -26.25979,18.2344 -48.04299,33.45138 -48.40712,33.8155 -0.36412,0.36413 0.26644,1.68303 1.40124,2.9309 1.13481,1.24787 3.31832,4.20078 4.85226,6.56201 1.53395,2.36124 2.95703,4.29315 3.16243,4.29315 0.2054,0 21.16879,-14.38573 46.58532,-31.96831 z m 464.62122,2.22535 c -18.90243,-17.36808 -109.23871,-98.04133 -109.78468,-98.04133 -0.39623,0 -3.1357,2.64272 -6.08773,5.8727 -5.2729,5.76939 -5.3334,5.90611 -3.4394,7.77166 1.06036,1.04442 26.47463,23.94617 56.47616,50.89278 l 54.54823,48.99384 5.76204,-6.25787 5.76203,-6.25786 z m -710.84851,-20.477 c 9.23687,-3.27128 17.13261,-10.57619 20.87943,-19.31705 7.72254,-18.01575 -0.34007,-39.04627 -18.11736,-47.25731 -5.46232,-2.52296 -7.50343,-2.90875 -15.38898,-2.90875 -7.92649,0 -9.83423,0.36478 -14.88907,2.84699 -7.41355,3.64046 -14.01918,10.2617 -17.57917,17.62073 -2.41255,4.98709 -2.80979,7.0654 -2.84554,14.88761 -0.0356,7.78633 0.34422,9.9143 2.64586,14.82414 8.26035,17.62087 27.22494,25.70315 45.29483,19.30364 z m 343.19595,-16.65914 c 7.50677,-2.76749 15.40299,-10.30906 19.03952,-18.18435 2.55131,-5.52515 2.93467,-7.54297 2.93467,-15.44673 0,-7.74186 -0.40038,-9.94553 -2.69728,-14.8457 -3.4352,-7.32856 -9.91186,-13.80521 -17.56079,-17.56079 -5.28531,-2.59505 -7.09666,-2.94884 -15.09726,-2.94884 -7.88555,0 -9.92666,0.38579 -15.38898,2.90875 -18.53861,8.56267 -26.1705,30.8905 -16.84742,49.28874 3.43649,6.78157 7.51927,11.09068 13.73156,14.49279 10.26589,5.62202 20.80587,6.38102 31.88598,2.29613 z M 797.8207,444.39857 c 6.85998,-3.07858 13.88167,-9.72656 17.22498,-16.30823 8.30701,-16.35329 2.7628,-36.79856 -12.66305,-46.6973 -23.01208,-14.76681 -53.29207,0.34512 -55.44354,27.67039 -2.14918,27.29623 25.69971,46.6361 50.88161,35.33514 z"
           id="path860"
           inkscape:connector-curvature="0"
           transform="matrix(0.26458333,0,0,0.26458333,-11.304729,-18.961144)" />
        <path
           style="opacity:1;fill:#000000;fill-opacity:1;stroke:#000000;stroke-width:0.76357985;stroke-miterlimit:4;stroke-dasharray:none;stroke-opacity:1"
           d="M 397.01941,112.85015 C 470.66667,39.131297 486.41473,25.517039 510.26785,14.946425 522.94659,9.3277865 548.02423,1.7935274 554.047,1.7935274 c 3.36892,0 3.57614,5.3265612 3.57614,91.9238816 V 185.64129 H 440.96105 324.29895 Z"
           id="path862"
           inkscape:connector-curvature="0"
           transform="matrix(0.26458333,0,0,0.26458333,-11.304729,-18.961144)" />
        <path
           style="opacity:1;fill:#000000;fill-opacity:1;stroke:#000000;stroke-width:0.76357985;stroke-miterlimit:4;stroke-dasharray:none;stroke-opacity:1"
           d="m 602.06985,93.717409 c 0,-88.7615983 0.13123,-91.9238816 3.81461,-91.9238816 6.68082,0 38.45832,9.9560616 49.3345,15.4567656 22.89943,11.581549 37.50872,24.370806 108.4753,94.961407 l 73.74114,73.35045 -117.68278,0.0396 -117.68277,0.0396 z"
           id="path864"
           inkscape:connector-curvature="0"
           transform="matrix(0.26458333,0,0,0.26458333,-11.304729,-18.961144)" />
        <path
           style="opacity:1;fill:#000000;fill-opacity:1;stroke:#000000;stroke-width:0.76357985;stroke-miterlimit:4;stroke-dasharray:none;stroke-opacity:1"
           d="m 538.29296,1152.4727 c -19.83677,-5.1289 -37.91778,-13.4436 -55.42111,-25.4859 -6.11142,-4.2046 -39.28943,-35.9 -73.72891,-70.4341 L 346.5257,993.76333 h 105.54872 105.54872 v 81.82237 c 0,45.0023 -0.22728,81.7776 -0.50508,81.723 -0.27779,-0.055 -8.74909,-2.2308 -18.8251,-4.836 z"
           id="path866"
           inkscape:connector-curvature="0"
           transform="matrix(0.26458333,0,0,0.26458333,-11.304729,-18.961144)" />
        <path
           style="opacity:1;fill:#000000;fill-opacity:1;stroke:#000000;stroke-width:0.76357985;stroke-miterlimit:4;stroke-dasharray:none;stroke-opacity:1"
           d="m 602.06985,1075.3099 v -81.54657 l 106.5711,0.0275 106.57109,0.0275 -64.64976,64.27747 c -50.63313,50.3416 -67.98736,66.3332 -80.04394,73.7588 -16.65867,10.2599 -41.24873,20.0581 -57.96334,23.0961 l -10.48515,1.9057 z"
           id="path868"
           inkscape:connector-curvature="0"
           transform="matrix(0.26458333,0,0,0.26458333,-11.304729,-18.961144)" />
      </g>
      <text
         id="text6626"
         y="137.46452"
         x="75.249527"
         style="font-style:normal;font-weight:normal;font-size:37.61582184px;line-height:1.25;font-family:sans-serif;letter-spacing:0px;word-spacing:0px;fill:#000000;fill-opacity:1;stroke:none;stroke-width:0.28211868"
         xml:space="preserve"><tspan
           style="stroke-width:0.28211868"
           id="tspan6624"
           y="137.46452"
           x="75.249527"
           sodipodi:role="line"><tspan
             id="tspan6622"
             style="font-style:normal;font-variant:normal;font-weight:normal;font-stretch:normal;font-size:37.61582184px;line-height:1.25;font-family:Comfortaa;-inkscape-font-specification:Comfortaa;stroke-width:0.28211868"
             y="137.46452"
             x="75.249527">Farad a</tspan></tspan></text>
      <circle
         r="2.46697"
         cy="110.90533"
         cx="234.09642"
         id="path6202-8"
         style="fill:none;fill-opacity:1;stroke:#000000;stroke-width:0.68496907;stroke-miterlimit:4;stroke-dasharray:none;stroke-opacity:1" />
      <circle
         r="2.46697"
         cy="135.77937"
         cx="197.16234"
         id="path6202-8-4"
         style="opacity:1;fill:none;fill-opacity:1;stroke:#000000;stroke-width:0.68496907;stroke-miterlimit:4;stroke-dasharray:none;stroke-opacity:1" />
      <rect
         rx="1.4840043"
         ry="1.361925"
         y="116.88048"
         x="232.63315"
         height="20.581562"
         width="2.9680085"
         id="rect858"
         style="opacity:1;fill:#000000;fill-opacity:1;stroke:none;stroke-width:1.09654522;stroke-miterlimit:4;stroke-dasharray:none;stroke-opacity:1" />
      <rect
         ry="0.022937924"
         rx="1.4840044"
         y="118.81586"
         x="245.02661"
         height="0.022937924"
         width="3.5439255e-14"
         id="rect860"
         style="opacity:1;fill:#000000;fill-opacity:1;stroke:none;stroke-width:0.84475565;stroke-miterlimit:4;stroke-dasharray:none;stroke-opacity:1" />
    </g>
  </g>
</svg>
